bicep_curl
version=1
nRows=24
nColumns=17
inDegrees=yes

# SIMM Motion File Header:
name bicep_curl
datacolumns 17
datarows 24
otherdata 1
range 0.28792477999999999128 0.30433370999999997952
endheader
time	/jointset/r_shoulder/r_shoulder_elev/value	/jointset/r_shoulder/r_shoulder_elev/speed	/jointset/r_elbow/r_elbow_flex/value	/jointset/r_elbow/r_elbow_flex/speed	/forceset/TRIlong/activation	/forceset/TRIlong/fiber_length	/forceset/TRIlat/activation	/forceset/TRIlat/fiber_length	/forceset/TRImed/activation	/forceset/TRImed/fiber_length	/forceset/BIClong/activation	/forceset/BIClong/fiber_length	/forceset/BICshort/activation	/forceset/BICshort/fiber_length	/forceset/BRA/activation	/forceset/BRA/fiber_length
0.28792477999999999128	     -0.16224380849937600213	     -0.70250199372278498977	     74.64522848096206075752	    259.00126469994347644388	      0.02013722906713668812	      0.16444081658182588268	      0.12744962379366120420	      0.09795746375687854057	      0.12627103206673453983	      0.09301443423375232999	      0.65936728165633018417	      0.10895108001850255242	      0.17449437581509805173	      0.10972789511768289705	      0.02480752462517962775	      0.07452170021669711486
0.28869911999999997576	     -0.16278697697221422569	     -0.70096406675850841950	     74.84578465504695543586	    259.00600087342843380611	      0.02013582775599450508	      0.16450735172462421785	      0.12781997321478372198	      0.09802305729463166306	      0.12664566798899182243	      0.09307999039366125771	      0.66017460880597977901	      0.10878942503071362125	      0.17665052447635393174	      0.10955167796071565989	      0.02477847994708625573	      0.07445154838254480767
0.28947347000000001049	     -0.16333017826405718531	     -0.70259904237132331239	     75.04635150710494428949	    259.02224155724866250239	      0.02013444074192789757	      0.16457243814466857024	      0.12815085286999336467	      0.09808887882516729995	      0.12698027809669548693	      0.09314576056310679142	      0.66094046120619887041	      0.10862774463116246781	      0.17859129948012825162	      0.10937578134911403460	      0.02474973768259378440	      0.07438125139903901950
0.28999999999999998002	     -0.16370085731069297652	     -0.70568106366929250761	     75.18273885832866199053	    259.03973318783732793236	      0.02013350572405293165	      0.16461687855008491632	      0.12835548369448829265	      0.09813375445027307242	      0.12718716458664150459	      0.09319059428725068317	      0.66143864128107454636	      0.10851779404149239361	      0.17979973332856513668	      0.10925643501075614494	      0.02473036528693546912	      0.07433336856251461511
0.29000865999999997369	     -0.16370696878501841964	     -0.70574495187809294094	     75.18498214385425626460	    259.04006511397585654777	      0.02013349040003021076	      0.16461760928352714428	      0.12835872022655556157	      0.09813449330033295614	      0.12719043646025746108	      0.09319133240430982346	      0.66144668688072405516	      0.10851598555318693606	      0.17981890247636814206	      0.10925447406639017534	      0.02473004781542042715	      0.07433258044962740008
0.29001733000000001761	     -0.16371308787258551098	     -0.70580934720192356480	     75.18722802266451310516	    259.04039884979908947571	      0.02013347506007494639	      0.16461834085984064502	      0.12837022033863720871	      0.09813523281368799478	      0.12719983051395672424	      0.09319207123652875624	      0.66147728049545684303	      0.10851417491253156911	      0.17979290869244829443	      0.10925251118694152830	      0.02472949719769050245	      0.07433179141145103419
0.29006064999999997545	     -0.16374367060189840006	     -0.70613740148819104103	     75.19844968918458505414	    259.04208685882849749760	      0.02013339843979214047	      0.16462199619989359434	      0.12842746166748314485	      0.09813892194167969651	      0.12724658920843415211	      0.09319575852425232565	      0.66162986266307910466	      0.10850512611158474874	      0.17966311436452681027	      0.10924271241366599605	      0.02472674698704676113	      0.07432784877034971649
0.29027724999999998667	     -0.16389680777509990639	     -0.70790164342529249275	     75.25455915211772150997	    259.05092544299219525783	      0.02013301599787029050	      0.16464027298577152414	      0.12870825734787269545	      0.09815724079300729155	      0.12747596671175934202	      0.09321410290611142901	      0.66238582155205849578	      0.10845983645406602480	      0.17901625224411876758	      0.10919393527897158780	      0.02471302021952474087	      0.07430813087622648028
0.29136025999999998204	     -0.16466860482175621483	     -0.71723576926586096736	     75.53513885396044713616	    259.09640332727161649018	      0.02013112016065096710	      0.16473167037077285357	      0.12998577594838739424	      0.09824726328014042609	      0.12851960028671721714	      0.09330475775241259262	      0.66599771719220268729	      0.10823235200449217441	      0.17583385875697049583	      0.10895499321974651263	      0.02464498912554434831	      0.07420940602725456525
0.29244326999999997740	     -0.16544943830033917442	     -0.72425059118672074909	     75.81576404684584247207	    259.13387092316582993590	      0.02012925135411294114	      0.16482312561397458039	      0.13107614916220150514	      0.09833684639432546670	      0.12941032254241754962	      0.09339523414233533161	      0.66934616791676493364	      0.10800342794975666127	      0.17273576412250549184	      0.10872305406594449939	      0.02457795259677105978	      0.07411042391382219319
0.29416423000000002652	     -0.16670142359794620779	     -0.72978848287211928181	     76.26176117944910970436	    259.17524227863367514146	      0.02012633637884684787	      0.16496829412717631258	      0.13249138906895716050	      0.09848033834325382874	      0.13056615143390173928	      0.09354000334634117453	      0.67417557750057599542	      0.10763748153707877742	      0.16797882376061570864	      0.10836548985764661579	      0.02447343732583151521	      0.07395256352720233628
0.29514572000000000029	     -0.16741827505136117060	     -0.73082233983620159545	     76.51614768677589495383	    259.19221710807704539548	      0.02012470346771828150	      0.16505173290431640609	      0.13315393287778826137	      0.09856290493541665365	      0.13110703632710898892	      0.09362315027119963440	      0.67668405546966503561	      0.10742791442177661299	      0.16535345178808574795	      0.10816617522162408349	      0.02441491586785454748	      0.07386220864280747256
0.29637759000000002407	     -0.16831871031065337441	     -0.73084747131065030956	     76.83545042677380365603	    259.21127204443621394603	      0.02012268384363989984	      0.16515468260057220018	      0.13386314690162920416	      0.09866720066686418544	      0.13168577278744963976	      0.09372802466566662605	      0.67960314656736053873	      0.10716427496123770435	      0.16214461694310777773	      0.10791955111827948588	      0.02434256083693191880	      0.07374847594939951123
0.29716777999999999249	     -0.16889617126782674461	     -0.73074167225123420888	     77.04028095433275780124	    259.22231841600290636052	      0.02012140560356897104	      0.16522279999319505750	      0.13425618575790537745	      0.09873444308720653873	      0.13200635331892487945	      0.09379556238309945393	      0.68135071716247208595	      0.10699489890000142556	      0.16013525104140602373	      0.10776299628710069023	      0.02429678131652930964	      0.07367532969192461256
0.29795797000000001642	     -0.16947347912431570682	     -0.73046806583298884430	     77.24512042898699348825	    259.23403104754038395185	      0.02012014068597797745	      0.16528931202991498095	      0.13460706769772376457	      0.09880191877900527941	      0.13229243406195351218	      0.09386328185811168567	      0.68300709209825249957	      0.10682537339674581800	      0.15816302606686602483	      0.10760746386715110134	      0.02425149014291784477	      0.07360203476980621551
0.29917477999999997351	     -0.17036220062269169517	     -0.73042193751617623398	     77.56057033375651599272	    259.25287663191681986063	      0.02011821857820490084	      0.16539268306071547299	      0.13507534466500997761	      0.09890622571304021060	      0.13267402011829235176	      0.09396787709266318789	      0.68539091352108461042	      0.10656411546935702639	      0.15519654091376328120	      0.10736953685118144630	      0.02418268919508433437	      0.07348887942504783721
0.29999999999999998890	     -0.17096501373518885325	     -0.73061467781103683894	     77.77451663305704698814	    259.26672373971734941733	      0.02011693257249478131	      0.16546217141226682301	      0.13534956217193794270	      0.09897721000187197082	      0.13289733637276171518	      0.09403900538324172498	      0.68689996137949738131	      0.10638684006742323007	      0.15323197976021282751	      0.10720901661554638196	      0.02413667158571978361	      0.07341194043706088246
0.30004127000000002656	     -0.17099516658535648950	     -0.73063335569661336244	     77.78521658515292358516	    259.26742241787007969833	      0.02011686862688424199	      0.16546568209450479570	      0.13536244495147831124	      0.09898076471875573434	      0.13290782494439698502	      0.09404256631586947746	      0.68697325693365218768	      0.10637797296704605554	      0.15313471176357115744	      0.10720100321876206706	      0.02413438369714336618	      0.07340808844984496317
0.30008254000000000872	     -0.17102532021358865522	     -0.73065236378827624897	     77.79591656612210215371	    259.26812287471705076314	      0.02011680471625448136	      0.16546919066591386782	      0.13538963995571454135	      0.09898431819915574914	      0.13292934682341808750	      0.09404612627501922340	      0.68709312005347955576	      0.10636910515998938831	      0.15304373428854020633	      0.10719299088145510523	      0.02413209708856715180	      0.07340423606347222518
0.30028890000000002525	     -0.17117610762038559802	     -0.73074922337852987742	     77.84941949783471670798	    259.27162758675837039846	      0.02011648567170808838	      0.16548671214607224567	      0.13552322972648647714	      0.09900204861619979479	      0.13303506244674395687	      0.09406389743699847261	      0.68768743317513392199	      0.10632474488277901536	      0.15259010462977459777	      0.10715293994025357205	      0.02412068266771602923	      0.07338496721291398739
0.30132070999999999161	     -0.17193017593038162349	     -0.73071146280910548310	     78.11694691710539473206	    259.28704788581291040828	      0.02011490346221575520	      0.16557422199142199370	      0.13613495892852278679	      0.09909024838498907417	      0.13351900428346141769	      0.09415242271640532346	      0.69053709957413378362	      0.10610251554425029208	      0.15035352438630622540	      0.10695295014761077579	      0.02406408660205234390	      0.07328847290305155748
0.30278497999999998136	     -0.17299859440485093609	     -0.72817433951575927242	     78.49662393681104788357	    259.30082386695204377247	      0.02011269493647489803	      0.16569750144795414304	      0.13686172569092072693	      0.09921541578872826450	      0.13409355318443888505	      0.09427810790109618366	      0.69425437907064557752	      0.10578619691802942926	      0.14726752502547205137	      0.10666963425859478376	      0.02398511614721746121	      0.07315111230669907316
0.30355935000000000556	     -0.17356169305354424148	     -0.72616288872897005735	     78.69742044793491686505	    259.30518895912581456287	      0.02011154418969285027	      0.16576417641807289494	      0.13718886577441410934	      0.09928183185154462742	      0.13435198988509267082	      0.09434475805970496398	      0.69607704788530566642	      0.10561859461991598974	      0.14567592672240342599	      0.10651990826417299940	      0.02394398222709599733	      0.07307827030633673449
0.30433370999999997952	     -0.17412311965423790672	     -0.72390824734374470406	     78.89821771687890361591	    259.30968971842526116234	      0.02011040521168174638	      0.16582955868922077958	      0.13748181467155545787	      0.09934842014643678609	      0.13458329336409477484	      0.09441154341578919529	      0.69780755214221179550	      0.10545083983290508278	      0.14411149656689042908	      0.10637018712687677791	      0.02390327804759003263	      0.07300529365891092470
